{
  "accessors": [
    {
      "bufferView": 2,
      "componentType": 5126,
      "count": 65532,
      "max": [
        4.382999897003174,
        1.3049999475479126,
        0.9860000014305115
      ],
      "min": [
        -3.752000093460083,
        -1.5260000228881836,
        -0.9739999771118164
      ],
      "type": "VEC3"
    },
    {
      "bufferView": 2,
      "byteOffset": 786384,
      "componentType": 5126,
      "count": 65532,
      "max": [
        0.9722733497619629,
        1.0,
        1.0
      ],
      "min": [
        -1.0,
        -1.0,
        -0.9999999403953552
      ],
      "type": "VEC3"
    },
    {
      "bufferView": 1,
      "componentType": 5126,
      "count": 65532,
      "max": [
        0.9987800121307373,
        0.9987599849700928
      ],
      "min": [
        0.0014600000577047467,
        0.5419399738311768
      ],
      "type": "VEC2"
    },
    {
      "bufferView": 0,
      "componentType": 5125,
      "count": 349773,
      "type": "SCALAR"
    },
    {
      "bufferView": 2,
      "byteOffset": 1572768,
      "componentType": 5126,
      "count": 65532,
      "max": [
        2.497999906539917,
        1.2680000066757202,
        0.9710000157356262
      ],
      "min": [
        -3.671999931335449,
        -0.8740000128746033,
        -0.9639999866485596
      ],
      "type": "VEC3"
    },
    {
      "bufferView": 2,
      "byteOffset": 2359152,
      "componentType": 5126,
      "count": 65532,
      "max": [
        0.9615227580070496,
        0.6614772081375122,
        1.0
      ],
      "min": [
        -1.0,
        -1.0,
        -1.0
      ],
      "type": "VEC3"
    },
    {
      "bufferView": 1,
      "byteOffset": 524256,
      "componentType": 5126,
      "count": 65532,
      "max": [
        0.8874499797821045,
        0.9985799789428711
      ],
      "min": [
        0.0013299999991431832,
        0.7897400259971619
      ],
      "type": "VEC2"
    },
    {
      "bufferView": 0,
      "byteOffset": 1399092,
      "componentType": 5125,
      "count": 368265,
      "type": "SCALAR"
    },
    {
      "bufferView": 2,
      "byteOffset": 3145536,
      "componentType": 5126,
      "count": 65532,
      "max": [
        2.868000030517578,
        1.3049999475479126,
        0.9660000205039978
      ],
      "min": [
        -3.746999979019165,
        -1.0049999952316284,
        -0.9639999866485596
      ],
      "type": "VEC3"
    },
    {
      "bufferView": 2,
      "byteOffset": 3931920,
      "componentType": 5126,
      "count": 65532,
      "max": [
        1.0,
        0.621109127998352,
        0.9870141744613647
      ],
      "min": [
        -1.0,
        -1.0,
        -1.0
      ],
      "type": "VEC3"
    },
    {
      "bufferView": 1,
      "byteOffset": 1048512,
      "componentType": 5126,
      "count": 65532,
      "max": [
        0.8863800168037415,
        0.9986500144004822
      ],
      "min": [
        0.003019999945536256,
        0.7965099811553955
      ],
      "type": "VEC2"
    },
    {
      "bufferView": 0,
      "byteOffset": 2872152,
      "componentType": 5125,
      "count": 372348,
      "type": "SCALAR"
    },
    {
      "bufferView": 2,
      "byteOffset": 4718304,
      "componentType": 5126,
      "count": 65532,
      "max": [
        -0.8820000290870667,
        1.3079999685287476,
        0.9585000276565552
      ],
      "min": [
        -3.752000093460083,
        0.30399999022483826,
        -0.968999981880188
      ],
      "type": "VEC3"
    },
    {
      "bufferView": 2,
      "byteOffset": 5504688,
      "componentType": 5126,
      "count": 65532,
      "max": [
        0.965819239616394,
        0.3335694372653961,
        1.0
      ],
      "min": [
        -1.0,
        -1.0,
        -1.0
      ],
      "type": "VEC3"
    },
    {
      "bufferView": 1,
      "byteOffset": 1572768,
      "componentType": 5126,
      "count": 65532,
      "max": [
        0.8486499786376953,
        0.889739990234375
      ],
      "min": [
        0.0013200000394135714,
        0.689520001411438
      ],
      "type": "VEC2"
    },
    {
      "bufferView": 0,
      "byteOffset": 4361544,
      "componentType": 5125,
      "count": 367182,
      "type": "SCALAR"
    },
    {
      "bufferView": 2,
      "byteOffset": 6291072,
      "componentType": 5126,
      "count": 65532,
      "max": [
        3.6080000400543213,
        1.0520000457763672,
        0.9860000014305115
      ],
      "min": [
        -3.006999969482422,
        -1.2599999904632568,
        -0.9589999914169312
      ],
      "type": "VEC3"
    },
    {
      "bufferView": 2,
      "byteOffset": 7077456,
      "componentType": 5126,
      "count": 65532,
      "max": [
        0.9515979886054993,
        0.5463119745254517,
        1.0
      ],
      "min": [
        -1.0,
        -1.0,
        -0.9911579489707947
      ],
      "type": "VEC3"
    },
    {
      "bufferView": 1,
      "byteOffset": 2097024,
      "componentType": 5126,
      "count": 65532,
      "max": [
        0.9964399933815002,
        0.9769899845123291
      ],
      "min": [
        0.0013200000394135714,
        0.6180400252342224
      ],
      "type": "VEC2"
    },
    {
      "bufferView": 0,
      "byteOffset": 5830272,
      "componentType": 5125,
      "count": 365526,
      "type": "SCALAR"
    },
    {
      "bufferView": 2,
      "byteOffset": 7863840,
      "componentType": 5126,
      "count": 2138,
      "max": [
        -0.1770000010728836,
        0.1860000044107437,
        -0.529699981212616
      ],
      "min": [
        -0.5320000052452087,
        0.05900000035762787,
        -0.9240000247955322
      ],
      "type": "VEC3"
    },
    {
      "bufferView": 2,
      "byteOffset": 7889496,
      "componentType": 5126,
      "count": 2138,
      "max": [
        0.8492096066474915,
        -0.14144347608089447,
        0.8249217867851257
      ],
      "min": [
        -0.9899463057518005,
        -1.0,
        -0.9457746148109436
      ],
      "type": "VEC3"
    },
    {
      "bufferView": 1,
      "byteOffset": 2621280,
      "componentType": 5126,
      "count": 2138,
      "max": [
        0.9952399730682373,
        0.9986600279808044
      ],
      "min": [
        0.9409400224685669,
        0.9453799724578857
      ],
      "type": "VEC2"
    },
    {
      "bufferView": 0,
      "byteOffset": 7292376,
      "componentType": 5125,
      "count": 9861,
      "type": "SCALAR"
    }
  ],
  "asset": {
    "extras": {
      "author": "Virtual Curation Lab (https://sketchfab.com/virtualcurationlab)",
      "license": "CC-BY-4.0 (http://creativecommons.org/licenses/by/4.0/)",
      "source": "https://sketchfab.com/3d-models/founding-monsters-comic-book-exhibit-216d12200bac4545bf9921186eaf5e47",
      "title": "Founding Monsters Comic Book Exhibit"
    },
    "generator": "Sketchfab-12.68.0",
    "version": "2.0"
  },
  "bufferViews": [
    {
      "buffer": 0,
      "byteLength": 7331820,
      "name": "floatBufferViews",
      "target": 34963
    },
    {
      "buffer": 0,
      "byteLength": 2638384,
      "byteOffset": 7331820,
      "byteStride": 8,
      "name": "floatBufferViews",
      "target": 34962
    },
    {
      "buffer": 0,
      "byteLength": 7915152,
      "byteOffset": 9970204,
      "byteStride": 12,
      "name": "floatBufferViews",
      "target": 34962
    }
  ],
  "buffers": [
    {
      "byteLength": 17885356,
      "uri": "scene.bin"
    }
  ],
  "extensionsUsed": [
    "KHR_materials_unlit"
  ],
  "images": [
    {
      "uri": "textures/material_0_baseColor.jpeg"
    }
  ],
  "materials": [
    {
      "doubleSided": true,
      "extensions": {
        "KHR_materials_unlit": {}
      },
      "name": "material_0",
      "pbrMetallicRoughness": {
        "baseColorTexture": {
          "index": 0
        },
        "metallicFactor": 0.0
      }
    }
  ],
  "meshes": [
    {
      "name": "Object_0",
      "primitives": [
        {
          "attributes": {
            "NORMAL": 1,
            "POSITION": 0,
            "TEXCOORD_0": 2
          },
          "indices": 3,
          "material": 0,
          "mode": 4
        }
      ]
    },
    {
      "name": "Object_1",
      "primitives": [
        {
          "attributes": {
            "NORMAL": 5,
            "POSITION": 4,
            "TEXCOORD_0": 6
          },
          "indices": 7,
          "material": 0,
          "mode": 4
        }
      ]
    },
    {
      "name": "Object_2",
      "primitives": [
        {
          "attributes": {
            "NORMAL": 9,
            "POSITION": 8,
            "TEXCOORD_0": 10
          },
          "indices": 11,
          "material": 0,
          "mode": 4
        }
      ]
    },
    {
      "name": "Object_3",
      "primitives": [
        {
          "attributes": {
            "NORMAL": 13,
            "POSITION": 12,
            "TEXCOORD_0": 14
          },
          "indices": 15,
          "material": 0,
          "mode": 4
        }
      ]
    },
    {
      "name": "Object_4",
      "primitives": [
        {
          "attributes": {
            "NORMAL": 17,
            "POSITION": 16,
            "TEXCOORD_0": 18
          },
          "indices": 19,
          "material": 0,
          "mode": 4
        }
      ]
    },
    {
      "name": "Object_5",
      "primitives": [
        {
          "attributes": {
            "NORMAL": 21,
            "POSITION": 20,
            "TEXCOORD_0": 22
          },
          "indices": 23,
          "material": 0,
          "mode": 4
        }
      ]
    }
  ],
  "nodes": [
    {
      "children": [
        1
      ],
      "matrix": [
        1.0,
        0.0,
        0.0,
        0.0,
        0.0,
        2.220446049250313e-16,
        -1.0,
        0.0,
        0.0,
        1.0,
        2.220446049250313e-16,
        0.0,
        0.0,
        0.0,
        0.0,
        1.0
      ],
      "name": "Sketchfab_model"
    },
    {
      "children": [
        2,
        3,
        4,
        5,
        6,
        7
      ],
      "name": "textured_output.obj.cleaner.materialmerger.gles"
    },
    {
      "mesh": 0,
      "name": "Object_2"
    },
    {
      "mesh": 1,
      "name": "Object_3"
    },
    {
      "mesh": 2,
      "name": "Object_4"
    },
    {
      "mesh": 3,
      "name": "Object_5"
    },
    {
      "mesh": 4,
      "name": "Object_6"
    },
    {
      "mesh": 5,
      "name": "Object_7"
    }
  ],
  "samplers": [
    {
      "magFilter": 9729,
      "minFilter": 9987,
      "wrapS": 10497,
      "wrapT": 10497
    }
  ],
  "scene": 0,
  "scenes": [
    {
      "name": "Sketchfab_Scene",
      "nodes": [
        0
      ]
    }
  ],
  "textures": [
    {
      "sampler": 0,
      "source": 0
    }
  ]
}
